<svg width="105" height="32" viewBox="0 0 105 32" fill="none" xmlns="http://www.w3.org/2000/svg">
<path d="M13.094 29.17V24.541C13.0814 24.4935 13.0814 24.4436 13.094 24.3961H16.2866C16.3303 24.3862 16.3757 24.3862 16.4194 24.3961C16.4218 24.4134 16.4218 24.4309 16.4194 24.4482C16.422 24.485 16.422 24.5219 16.4194 24.5587V29.17H13.094Z" fill="white"/>
<path d="M28.1731 17.6631V23.1036L28.0497 23.1839L26.8002 23.9218L21.8804 26.8274L18.0479 29.082C18.0176 29.1074 17.9816 29.1252 17.9429 29.1341C17.9403 29.1158 17.9403 29.0972 17.9429 29.0788V24.3607C17.9429 24.3158 18.0117 24.3007 18.0479 24.2757L19.0318 23.7024L22.7461 21.5182C23.1661 21.2779 23.5772 21.0173 23.9904 20.7885L24.0838 20.7364C24.0978 20.7278 24.1095 20.716 24.118 20.702C24.1265 20.6881 24.1317 20.6724 24.1332 20.6562V17.8158C24.119 17.7683 24.119 17.7178 24.1332 17.6704H28.0544C28.0928 17.6582 28.1335 17.6557 28.1731 17.6631Z" fill="white"/>
<path d="M24.1138 14.337C24.1138 14.3099 24.1138 14.2848 24.1138 14.2567V11.446C24.1138 11.2459 24.1138 11.2808 23.9715 11.1906L20.5275 9.18672L18.0385 7.72744C17.9251 7.66229 17.9398 7.67272 17.9398 7.55233V2.99519C17.9282 2.95925 17.9282 2.92064 17.9398 2.8847C17.9736 2.89095 18.0055 2.90466 18.0332 2.92483L18.9257 3.45122L25.1323 7.08796L28.0844 8.80106C28.2119 8.8761 28.1972 8.8563 28.1972 9.00171V14.3119H28.1285C28.1007 14.314 28.0728 14.314 28.045 14.3119H24.1075L24.1138 14.337Z" fill="white"/>
<path d="M11.6025 24.3309V29.1148C11.5631 29.1148 11.5384 29.1148 11.5138 29.0845L10.4858 28.4784L7.00244 26.4349L3.06494 24.1053L1.48312 23.1734L1.37497 23.1036V17.663C1.39225 17.6591 1.41019 17.6591 1.42747 17.663H5.30249C5.34708 17.6479 5.39546 17.6479 5.44004 17.663C5.45712 17.7133 5.46215 17.7669 5.45474 17.8194V20.5545C5.45264 20.5946 5.45264 20.6348 5.45474 20.6749C5.45523 20.6896 5.459 20.704 5.46577 20.7171C5.47256 20.7301 5.48226 20.7413 5.49412 20.75L5.56814 20.7901L10.2648 23.557L11.5048 24.2866L11.6025 24.3309Z" fill="white"/>
<path d="M5.45369 14.3119H1.40016C1.39806 14.2903 1.39806 14.2684 1.40016 14.2468C1.39754 14.2133 1.39754 14.1797 1.40016 14.1462V9.0314C1.40016 8.84638 1.40016 8.88651 1.53299 8.79635L6.22596 6.03101L10.826 3.29068L11.4975 2.8998L11.5957 2.84769C11.5985 2.86494 11.5985 2.88255 11.5957 2.8998C11.5983 2.93328 11.5983 2.96691 11.5957 3.00039V7.50853C11.5957 7.67896 11.5957 7.64873 11.4628 7.7342L5.55711 11.1958C5.40486 11.286 5.41431 11.2558 5.41431 11.4413V14.1915C5.43651 14.2282 5.44998 14.2693 5.45369 14.3119Z" fill="white"/>
<path d="M73.3987 4.5738C73.387 4.59282 73.3772 4.61288 73.3693 4.63374C73.3585 4.84789 73.2867 5.05461 73.1624 5.22996C73.0636 5.38473 72.9328 5.5169 72.7786 5.61771C72.6258 5.71765 72.453 5.78361 72.272 5.81106C72.004 5.86532 71.7259 5.84273 71.4703 5.74592C71.2522 5.67099 71.0587 5.53879 70.9102 5.36338C70.7597 5.18562 70.6593 4.97144 70.6193 4.74266C70.5665 4.47727 70.5833 4.20287 70.6681 3.94579C70.7414 3.7199 70.8741 3.5175 71.0524 3.35947C71.2285 3.20291 71.4444 3.09727 71.6767 3.05406C71.9509 2.99146 72.2374 3.00718 72.503 3.0994C72.7225 3.17376 72.9177 3.30557 73.0679 3.4809C73.2197 3.65825 73.3219 3.87215 73.364 4.1011C73.3666 4.13284 73.3666 4.16473 73.364 4.19647C73.3614 4.23089 73.3721 4.265 73.3939 4.29185L73.3987 4.5738Z" fill="white"/>
<path d="M58.7428 13.5708C58.7031 13.59 58.6592 13.5986 58.6152 13.5958H50.6205C50.6123 13.612 50.6081 13.6299 50.6084 13.648C50.608 13.6661 50.6122 13.684 50.6205 13.7001C50.6963 14.2329 50.8967 14.7407 51.2059 15.1828C51.5512 15.6615 52.0459 16.0138 52.6134 16.185C52.8461 16.2529 53.0849 16.2981 53.3263 16.32C53.5391 16.3377 53.753 16.3377 53.9658 16.32C54.3008 16.3059 54.6321 16.2454 54.9502 16.1402C55.4966 15.953 55.963 15.5873 56.2732 15.1031L56.3782 14.9467C56.395 14.9443 56.4123 14.9457 56.4285 14.951C56.4447 14.9562 56.4594 14.9651 56.4716 14.977L57.2738 15.3418L58.1248 15.7274L58.2377 15.7796C58.2314 15.8019 58.2231 15.8237 58.213 15.8447C57.6431 16.8442 56.7271 17.6043 55.6353 17.9841C55.342 18.0827 55.0408 18.1564 54.7349 18.2046C54.2767 18.2802 53.8119 18.3087 53.3479 18.2895C52.2981 18.2633 51.2839 17.9059 50.4525 17.2691C49.611 16.6259 48.9904 15.7401 48.6759 14.733C48.568 14.3883 48.4923 14.0345 48.4496 13.6761C48.3902 13.2681 48.3726 12.8551 48.3971 12.4435C48.4321 11.3432 48.8065 10.2801 49.4697 9.3978C50.0076 8.67868 50.734 8.11985 51.5697 7.78216C51.9578 7.6195 52.364 7.50333 52.7798 7.4361C53.1535 7.37362 53.5325 7.34848 53.9112 7.36106C54.0757 7.35989 54.24 7.36999 54.4031 7.39128C55.1876 7.45724 55.941 7.72566 56.5887 8.16992C57.2431 8.6195 57.7711 9.22743 58.1227 9.93617C58.3684 10.4179 58.5424 10.9324 58.6393 11.4637C58.7401 12.0072 58.7813 12.5599 58.7622 13.1122V13.4275C58.7629 13.476 58.7563 13.5243 58.7428 13.5708ZM50.6257 11.8223H56.49C56.5485 11.8322 56.6084 11.8322 56.6669 11.8223C56.6819 11.7712 56.6819 11.717 56.6669 11.6659C56.6601 11.5868 56.6485 11.5081 56.6323 11.4304C56.5761 11.0827 56.4435 10.7515 56.2438 10.4605C56.0459 10.1723 55.7854 9.93183 55.4815 9.75689C55.0424 9.49805 54.5453 9.35172 54.0351 9.33109C53.7797 9.30868 53.5229 9.30868 53.2675 9.33109C53.0391 9.35767 52.8135 9.40459 52.5934 9.47128C51.996 9.64113 51.4752 10.009 51.1177 10.5136C50.8733 10.888 50.7061 11.3068 50.6257 11.7457C50.6236 11.7712 50.6236 11.7968 50.6257 11.8223Z" fill="white"/>
<path d="M69.1037 3.37667C68.8527 3.92755 68.6117 4.47843 68.3555 5.02931C68.3423 5.05365 68.3276 5.07715 68.3114 5.09967L68.2427 5.04755C67.9175 4.77177 67.5365 4.56845 67.1255 4.45133C66.934 4.39407 66.7353 4.36372 66.5354 4.36117C66.2275 4.34972 65.9207 4.403 65.635 4.51752C65.4272 4.60067 65.2403 4.72805 65.0874 4.89068C64.933 5.05516 64.8161 5.25068 64.7446 5.46397C64.6596 5.69539 64.6131 5.93902 64.607 6.18527V7.6482C64.5923 7.68682 64.5923 7.72945 64.607 7.76807C64.6244 7.77099 64.6422 7.77099 64.6595 7.76807H68.2164C68.2618 7.75869 68.3086 7.75869 68.354 7.76807V9.54006C68.3645 9.5811 68.3645 9.6241 68.354 9.66514C68.319 9.67781 68.2807 9.67781 68.2458 9.66514H64.6055C64.6013 9.69173 64.6013 9.71881 64.6055 9.7454V18.0946C64.6055 18.1378 64.6055 18.1811 64.6055 18.2249C64.6055 18.2687 64.6055 18.2796 64.5461 18.2848H62.58C62.5363 18.2947 62.4909 18.2947 62.4472 18.2848C62.4493 18.2665 62.4493 18.2479 62.4472 18.2296V9.77355C62.4472 9.73342 62.4472 9.7183 62.3947 9.7183H60.668C60.624 9.7256 60.5791 9.7256 60.5351 9.7183V9.65837C60.5325 9.63342 60.5325 9.60827 60.5351 9.58332V7.93016C60.5252 7.88905 60.5252 7.84618 60.5351 7.80508C60.569 7.79272 60.6062 7.79272 60.6401 7.80508H62.3963C62.4309 7.80508 62.4456 7.80508 62.4488 7.74462V6.1368C62.4549 5.58379 62.5703 5.03735 62.7884 4.52846C63.1112 3.74414 63.7343 3.11902 64.5209 2.79035C64.8349 2.65392 65.1657 2.55963 65.5048 2.50996C65.8762 2.45572 66.2526 2.44382 66.6267 2.47452C67.404 2.50746 68.159 2.74254 68.816 3.15622C68.8978 3.20829 68.9765 3.26502 69.0517 3.32612L69.1037 3.37667Z" fill="white"/>
<path d="M42.0215 16.0521C42.0215 16.0412 42.0241 16.0305 42.0292 16.0208C42.0344 16.0112 42.0418 16.003 42.0509 15.9969C42.095 15.802 42.1344 15.6065 42.179 15.4111C42.1933 15.3477 42.213 15.2856 42.2378 15.2255L44.909 8.66815L45.2025 7.93017L45.2513 7.82594C45.2951 7.81657 45.3404 7.81657 45.3842 7.82594H47.618C47.6208 7.86437 47.6122 7.90276 47.5933 7.93643C47.4852 8.1918 47.3718 8.43727 47.2637 8.70776C46.6078 10.2543 45.9519 11.8039 45.296 13.3566C44.6401 14.9094 43.9628 16.509 43.2642 18.1556L43.1949 18.3062H40.8655C40.8378 18.2734 40.8161 18.236 40.8014 18.1957C40.5505 17.5995 40.3095 17.0033 40.0386 16.4076L37.5443 10.5501C37.17 9.67871 36.8025 8.80209 36.4277 7.93017C36.4293 7.91099 36.4266 7.89169 36.4197 7.87367C36.4129 7.85565 36.4022 7.83935 36.3883 7.82594H38.85L38.9025 7.94633C39.227 8.77291 39.5549 9.59775 39.8864 10.4209L41.8047 15.2349C41.8457 15.3439 41.877 15.4562 41.8982 15.5706C41.9281 15.7108 41.9575 15.8562 41.9921 15.9964C41.9963 16.0174 42.0065 16.0367 42.0215 16.0521Z" fill="white"/>
<path d="M70.9275 18.2796C70.9265 18.2614 70.9265 18.2431 70.9275 18.2249V7.83478C70.9259 7.8232 70.9259 7.81145 70.9275 7.79987H73.0627C73.0643 7.82155 73.0643 7.84332 73.0627 7.86501V18.1368C73.0648 18.1767 73.0648 18.2167 73.0627 18.2567C73.0623 18.267 73.0581 18.2769 73.0508 18.2843C73.0435 18.2917 73.0337 18.2962 73.0233 18.2968H70.9076L70.9275 18.2796Z" fill="white"/>
<path d="M16.4325 7.59402H13.1135C13.1093 7.56918 13.1093 7.54381 13.1135 7.51897C13.1108 7.48897 13.1108 7.4588 13.1135 7.42881V2.99884C13.1007 2.94749 13.1007 2.89383 13.1135 2.84249C13.133 2.8404 13.1527 2.8404 13.1723 2.84249H16.275C16.325 2.8305 16.3772 2.8305 16.4273 2.84249C16.4299 2.86255 16.4299 2.88288 16.4273 2.90294C16.4299 2.9312 16.4299 2.95964 16.4273 2.98789V7.43662C16.439 7.48829 16.4407 7.54169 16.4325 7.59402Z" fill="white"/>
<path d="M76.6421 18.4386C76.5835 18.4423 76.5247 18.4342 76.4693 18.4148C76.4139 18.3953 76.363 18.3649 76.3198 18.3255C76.2436 18.2363 76.2032 18.1224 76.2064 18.0055V5.71779C76.2026 5.65962 76.2107 5.60129 76.2302 5.54631C76.2497 5.49132 76.2801 5.4408 76.3198 5.39779C76.36 5.35314 76.4099 5.3181 76.4658 5.29527C76.5216 5.27244 76.5819 5.26241 76.6421 5.26593H77.5141C77.6657 5.26593 77.7794 5.30363 77.8554 5.37902C77.9115 5.41762 77.9571 5.46935 77.9882 5.52964L84.2814 15.1265V5.71779C84.2777 5.65958 84.2859 5.60124 84.3055 5.54626C84.3251 5.49128 84.3556 5.44078 84.3953 5.39779C84.4356 5.35311 84.4855 5.31805 84.5413 5.29522C84.5971 5.27238 84.6574 5.26237 84.7177 5.26593H85.6275C85.6873 5.26572 85.7466 5.27727 85.8019 5.2999C85.8572 5.32254 85.9075 5.35581 85.9498 5.39781C85.9921 5.43981 86.0256 5.48971 86.0484 5.54462C86.0712 5.59954 86.0829 5.65839 86.0827 5.71779V17.9867C86.0837 18.0462 86.0724 18.1053 86.0496 18.1603C86.0268 18.2154 85.9928 18.2652 85.9498 18.3067C85.9126 18.3501 85.866 18.3844 85.8134 18.4073C85.7608 18.4301 85.7037 18.4408 85.6464 18.4386H84.735C84.6764 18.4423 84.6176 18.4342 84.5622 18.4148C84.5068 18.3953 84.4559 18.3649 84.4126 18.3255C84.3496 18.2504 84.3076 18.2004 84.2798 18.1749L78.0071 8.67179V18.0055C78.0091 18.0645 77.9986 18.1233 77.9762 18.178C77.9538 18.2327 77.92 18.2821 77.877 18.323C77.8341 18.3639 77.7829 18.3953 77.7269 18.4152C77.6709 18.4351 77.6113 18.4431 77.5519 18.4386H76.6421ZM90.5436 18.4386C90.4848 18.4448 90.4253 18.4379 90.3695 18.4183C90.3137 18.3988 90.263 18.3671 90.2212 18.3255C90.1793 18.284 90.1474 18.2337 90.1277 18.1783C90.108 18.1229 90.101 18.0639 90.1073 18.0055V10.1587H88.4961C88.4373 10.165 88.3778 10.1581 88.322 10.1385C88.2663 10.1189 88.2156 10.0872 88.1738 10.0457C88.132 10.0041 88.1001 9.95381 88.0805 9.89842C88.0609 9.84303 88.054 9.78398 88.0603 9.7256V9.08612C88.0577 9.0309 88.0664 8.97572 88.0858 8.92393C88.1053 8.87215 88.1353 8.82484 88.1737 8.78489C88.2156 8.74231 88.2658 8.70866 88.3212 8.68599C88.3767 8.66332 88.4362 8.65211 88.4961 8.65303H90.1073V7.71336C90.1073 7.07336 90.2148 6.51501 90.4297 6.03831C90.6355 5.55907 90.9963 5.16153 91.455 4.9084C91.9352 4.64504 92.5734 4.51336 93.3697 4.51336H94.5073C94.5646 4.5111 94.6216 4.5218 94.6741 4.54465C94.7266 4.56749 94.7731 4.60188 94.8103 4.64521C94.8489 4.68499 94.8789 4.73218 94.8985 4.78389C94.9181 4.8356 94.9268 4.89074 94.9242 4.94593V5.58593C94.9273 5.7029 94.8868 5.81689 94.8103 5.90593C94.7701 5.9441 94.7225 5.97377 94.6705 5.99312C94.6184 6.01247 94.5629 6.02111 94.5073 6.0185H93.4075C92.8125 6.0185 92.408 6.17485 92.1942 6.48756C91.9796 6.7888 91.8722 7.2278 91.8718 7.80456V8.65147H94.3173C94.3746 8.64929 94.4317 8.66002 94.4842 8.68285C94.5368 8.70569 94.5835 8.74004 94.6207 8.78332C94.6594 8.82316 94.6895 8.87044 94.7091 8.92224C94.7287 8.97405 94.7374 9.02929 94.7347 9.08456V9.72404C94.7379 9.84102 94.6973 9.95503 94.6207 10.044C94.5806 10.0824 94.533 10.1123 94.4808 10.1317C94.4286 10.1512 94.373 10.1598 94.3173 10.1571H91.8718V18.0055C91.873 18.065 91.8618 18.124 91.8391 18.1791C91.8163 18.2341 91.7824 18.2839 91.7395 18.3255C91.6994 18.3638 91.6517 18.3936 91.5996 18.4131C91.5474 18.4325 91.4918 18.4412 91.4361 18.4386H90.5436ZM100.263 18.4386C99.5557 18.4386 98.9807 18.3069 98.5383 18.0435C98.101 17.7736 97.7623 17.3718 97.5718 16.8969C97.3698 16.3952 97.2687 15.8056 97.2683 15.1281V10.1587H95.7899C95.7311 10.1649 95.6716 10.158 95.6158 10.1385C95.56 10.1189 95.5093 10.0872 95.4675 10.0457C95.4257 10.0041 95.3937 9.95384 95.374 9.89846C95.3543 9.84307 95.3474 9.78401 95.3536 9.7256V9.08612C95.351 9.03087 95.3598 8.97566 95.3794 8.92387C95.399 8.87208 95.429 8.82479 95.4676 8.78489C95.5094 8.74229 95.5596 8.70862 95.615 8.68595C95.6705 8.66328 95.73 8.65208 95.7899 8.65303H97.2683V5.51036C97.2657 5.45517 97.2744 5.40003 97.294 5.34832C97.3136 5.29661 97.3436 5.24942 97.3822 5.20964C97.424 5.16695 97.4742 5.13321 97.5296 5.11053C97.5851 5.08785 97.6446 5.07671 97.7046 5.07779H98.5971C98.7112 5.0824 98.8193 5.12946 98.9001 5.2096C98.9808 5.28975 99.0282 5.39711 99.0328 5.51036V8.65147H101.383C101.498 8.65597 101.606 8.70304 101.687 8.78331C101.768 8.86357 101.815 8.97114 101.82 9.08456V9.72404C101.821 9.78355 101.809 9.84264 101.786 9.89768C101.764 9.95271 101.73 10.0025 101.687 10.044C101.647 10.0824 101.599 10.1123 101.547 10.1317C101.495 10.1512 101.439 10.1598 101.383 10.1571H99.0328V14.9931C99.0328 15.5838 99.134 16.0479 99.3363 16.3857C99.5386 16.7234 99.8987 16.8928 100.417 16.8938H101.572C101.686 16.8984 101.794 16.9456 101.875 17.0258C101.956 17.1061 102.003 17.2136 102.007 17.3269V18.0044C102.009 18.0639 101.997 18.123 101.974 18.1781C101.952 18.2331 101.918 18.2829 101.875 18.3244C101.835 18.3628 101.787 18.3926 101.735 18.412C101.683 18.4315 101.627 18.4402 101.572 18.4375L100.263 18.4386Z" fill="white"/>
<path d="M44.5158 20.7229V27.3527H43.8375V21.7991L41.5275 27.3527H40.9154L38.5922 21.8184V27.3527H37.905V20.7229H38.7082L41.2251 26.5167L43.722 20.7229H44.5158Z" fill="white"/>
<path d="M50.1732 22.4526C50.5468 22.7227 50.8206 23.1073 50.9523 23.5471V22.1066H51.6201V27.3527H50.9523V25.9117C50.8205 26.3514 50.5467 26.7359 50.1732 27.0061C49.7952 27.2813 49.3386 27.4189 48.8035 27.4189C48.3542 27.4262 47.9111 27.3133 47.5209 27.0921C47.1409 26.8719 46.8346 26.5457 46.64 26.154C46.43 25.7475 46.325 25.2718 46.325 24.727C46.325 24.176 46.43 23.6972 46.64 23.2907C46.8336 22.9014 47.1383 22.5774 47.5162 22.3588C47.9086 22.1394 48.3531 22.0282 48.8035 22.0367C49.339 22.0385 49.7956 22.1771 50.1732 22.4526ZM47.5482 23.1974C47.1902 23.5719 47.0111 24.0827 47.0111 24.7296C47.0111 25.3766 47.1902 25.8875 47.5482 26.2624C47.9066 26.6373 48.3826 26.8246 48.9762 26.8242C49.3307 26.829 49.68 26.739 49.9874 26.5637C50.2884 26.3902 50.5335 26.1354 50.694 25.8288C50.863 25.4863 50.9508 25.11 50.9508 24.7286C50.9508 24.3472 50.863 23.9709 50.694 23.6284C50.5332 23.3221 50.2881 23.0673 49.9874 22.8936C49.68 22.7182 49.3307 22.6282 48.9762 22.633C48.3837 22.6344 47.9082 22.8225 47.5498 23.1974H47.5482Z" fill="white"/>
<path d="M55.104 22.3182C55.4463 22.1135 55.8626 22.011 56.353 22.0107V22.7403H56.1304C55.6204 22.7403 55.1978 22.8765 54.8625 23.1489C54.5272 23.4213 54.3594 23.8648 54.359 24.4795V27.3522H53.6718V22.1066H54.359V23.1922C54.5031 22.827 54.7651 22.5197 55.104 22.3182Z" fill="white"/>
<path d="M60.6601 27.3527L58.5207 24.9506V27.3527H57.8335V20.2429H58.5207V24.4122L60.6207 22.1061H61.4607L59.0336 24.7036L61.53 27.3527H60.6601Z" fill="white"/>
<path d="M66.4188 26.5074C66.5759 26.3943 66.7082 26.2509 66.808 26.0857C66.9078 25.9206 66.9729 25.7371 66.9995 25.5463H67.7156C67.631 26.0829 67.3438 26.5674 66.9123 26.9014C66.4734 27.2471 65.9185 27.4208 65.2475 27.4225C64.7803 27.4315 64.3187 27.3207 63.9072 27.101C63.5165 26.8864 63.1984 26.562 62.9927 26.1686C62.7732 25.7621 62.6635 25.2833 62.6635 24.7322C62.6635 24.1812 62.7732 23.7024 62.9927 23.2959C63.1985 22.9027 63.5167 22.5786 63.9072 22.364C64.3187 22.1441 64.7803 22.0332 65.2475 22.042C65.7638 22.042 66.2107 22.1493 66.5884 22.364C66.9512 22.5645 67.2497 22.8626 67.4494 23.224C67.6466 23.5834 67.7483 23.9868 67.745 24.3961C67.7461 24.5602 67.7331 24.7241 67.7061 24.886H63.3313C63.3376 25.3279 63.4295 25.698 63.6069 25.9961C63.7676 26.278 64.0082 26.5067 64.2989 26.6538C64.5844 26.7953 64.8995 26.8678 65.2187 26.8654C65.6961 26.8637 66.0961 26.7443 66.4188 26.5074ZM64.3088 22.7987C64.0201 22.9441 63.7798 23.1692 63.6169 23.447C63.4387 23.7385 63.3435 24.1022 63.3313 24.5379H67.0672C67.0927 24.1084 67.0227 23.7464 66.8572 23.4517C66.7034 23.1707 66.467 22.9429 66.1794 22.7987C65.8907 22.6566 65.5724 22.5841 65.2502 22.5871C64.924 22.5829 64.6014 22.6554 64.3088 22.7987Z" fill="white"/>
<path d="M71.9455 26.757V27.3527H71.3155C70.8052 27.3527 70.4244 27.2327 70.1731 26.9926C69.9218 26.7525 69.796 26.3474 69.7956 25.7772V22.6929H68.9924V22.1066H69.7956V20.7807H70.4828V22.1066H71.9345V22.6929H70.4828V25.7866C70.4828 26.1584 70.5506 26.413 70.686 26.5506C70.8215 26.6882 71.0602 26.7577 71.4021 26.7591L71.9455 26.757Z" fill="white"/>
<path d="M77.7478 22.3614C78.1235 22.581 78.4263 22.9049 78.6188 23.2933C78.8288 23.7002 78.9338 24.1789 78.9338 24.7296C78.9338 25.2741 78.8288 25.7497 78.6188 26.1566C78.4253 26.5474 78.1209 26.8735 77.7431 27.0947C77.3547 27.3163 76.9131 27.4292 76.4652 27.4215C75.9234 27.4215 75.4653 27.2839 75.0908 27.0087C74.7195 26.7374 74.4478 26.3531 74.3169 25.9143V29.8319H73.6391V22.1066H74.3169V23.5481C74.4476 23.1093 74.7194 22.7249 75.0908 22.4537C75.4653 22.1785 75.9234 22.0407 76.4652 22.0404C76.914 22.0312 77.357 22.142 77.7478 22.3614ZM75.2698 22.8946C74.9698 23.0676 74.7263 23.3227 74.5684 23.6294C74.4028 23.9729 74.3169 24.3489 74.3169 24.7296C74.3169 25.1104 74.4028 25.4864 74.5684 25.8298C74.726 26.1367 74.9696 26.3919 75.2698 26.5647C75.5774 26.74 75.9268 26.83 76.2815 26.8253C76.8814 26.8253 77.3589 26.638 77.7142 26.2635C78.0694 25.8889 78.2469 25.378 78.2465 24.7307C78.2465 24.0837 78.0691 23.573 77.7142 23.1984C77.3593 22.8239 76.8821 22.6361 76.2825 22.635C75.9276 22.6298 75.5778 22.7194 75.2698 22.8946Z" fill="white"/>
<path d="M81.4207 20.2429V27.3527H80.7335V20.2429H81.4207Z" fill="white"/>
<path d="M87.0686 22.4526C87.4422 22.7227 87.716 23.1073 87.8477 23.5471V22.1066H88.515V27.3527H87.8472V25.9117C87.7154 26.3514 87.4416 26.7359 87.0681 27.0061C86.6904 27.2813 86.2339 27.4189 85.6984 27.4189C85.2491 27.4262 84.806 27.3133 84.4158 27.0921C84.0358 26.8719 83.7295 26.5457 83.5348 26.154C83.3248 25.7475 83.2198 25.2718 83.2198 24.727C83.2198 24.176 83.3248 23.6972 83.5348 23.2907C83.7285 22.9014 84.0332 22.5774 84.4111 22.3588C84.8036 22.1394 85.248 22.0282 85.6984 22.0367C86.2342 22.0385 86.691 22.1771 87.0686 22.4526ZM84.4436 23.1974C84.0856 23.5719 83.9065 24.0827 83.9065 24.7296C83.9065 25.3766 84.0856 25.8875 84.4436 26.2624C84.802 26.6373 85.278 26.8246 85.8716 26.8242C86.2261 26.829 86.5754 26.739 86.8828 26.5636C87.1838 26.3902 87.4289 26.1353 87.5894 25.8288C87.7584 25.4863 87.8462 25.11 87.8462 24.7286C87.8462 24.3472 87.7584 23.9709 87.5894 23.6284C87.4286 23.3221 87.1836 23.0673 86.8828 22.8935C86.5754 22.7182 86.2261 22.6282 85.8716 22.633C85.2787 22.6344 84.8032 22.8225 84.4452 23.1974H84.4436Z" fill="white"/>
<path d="M94.5693 22.5668C95.0114 22.9191 95.2809 23.3867 95.3778 23.9698H94.6712C94.6429 23.7748 94.5761 23.5874 94.4747 23.4182C94.3732 23.249 94.2391 23.1013 94.08 22.9837C93.7577 22.7433 93.3609 22.6232 92.8898 22.6236C92.5603 22.6201 92.2353 22.6994 91.9448 22.8539C91.6498 23.0158 91.4104 23.2618 91.2576 23.5601C91.0865 23.8773 91.0011 24.2665 91.0014 24.7275C91.0018 25.1886 91.0872 25.5778 91.2576 25.895C91.4103 26.1934 91.6497 26.4394 91.9448 26.6012C92.2352 26.7559 92.5603 26.8353 92.8898 26.832C93.3609 26.832 93.7577 26.7118 94.08 26.4714C94.2389 26.354 94.3728 26.2065 94.4742 26.0376C94.5756 25.8687 94.6423 25.6815 94.6706 25.4869H95.3773C95.28 26.0696 95.0105 26.5371 94.5688 26.8894C94.1271 27.2417 93.5706 27.4178 92.8993 27.4178C92.4329 27.4281 91.9716 27.319 91.56 27.101C91.1693 26.8862 90.851 26.5619 90.6449 26.1686C90.4255 25.7621 90.3159 25.2833 90.3163 24.7322C90.3166 24.1812 90.4262 23.7024 90.6449 23.2959C90.8507 22.9018 91.169 22.5768 91.56 22.3614C91.9715 22.1414 92.4331 22.0305 92.9003 22.0393C93.5709 22.0393 94.1273 22.2151 94.5693 22.5668Z" fill="white"/>
<path d="M100.681 26.5074C100.838 26.3944 100.971 26.251 101.071 26.0858C101.17 25.9206 101.236 25.7371 101.262 25.5463H101.979C101.894 26.083 101.607 26.5675 101.175 26.9014C100.736 27.2471 100.181 27.4208 99.5106 27.4225C99.0432 27.4315 98.5815 27.3207 98.1698 27.101C97.7792 26.8862 97.4611 26.5619 97.2552 26.1686C97.0358 25.7621 96.926 25.2833 96.926 24.7322C96.926 24.1812 97.0358 23.7024 97.2552 23.2959C97.4612 22.9029 97.7793 22.5787 98.1698 22.364C98.5814 22.1441 99.0432 22.0332 99.5106 22.042C100.026 22.042 100.473 22.1493 100.851 22.364C101.214 22.5644 101.513 22.8625 101.712 23.224C101.909 23.5836 102.011 23.9869 102.008 24.3961C102.009 24.5602 101.996 24.7241 101.969 24.886H97.5938C97.6001 25.3279 97.6922 25.698 97.87 25.9961C98.0305 26.2781 98.2712 26.5069 98.5619 26.6538C98.8472 26.7954 99.1623 26.8679 99.4812 26.8654C99.959 26.8637 100.359 26.7443 100.681 26.5074ZM98.5714 22.7987C98.2826 22.9441 98.0423 23.1692 97.8794 23.447C97.702 23.7385 97.6068 24.1022 97.5938 24.5379H101.33C101.355 24.1084 101.285 23.7464 101.12 23.4517C100.966 23.1707 100.73 22.9429 100.442 22.7987C100.153 22.6566 99.8353 22.5841 99.5132 22.5871C99.1868 22.5828 98.8641 22.6553 98.5714 22.7987Z" fill="white"/>
</svg>
